<svg width="256" height="36" viewBox="0 0 256 36" fill="none" xmlns="http://www.w3.org/2000/svg">
<circle cx="5.5" cy="5.5" r="5.5" fill="#232323"/>
<path d="M18.2 30.24C17.08 30.24 16.072 30.104 15.176 29.832C14.28 29.544 13.424 29.048 12.608 28.344C12.4 28.168 12.24 27.968 12.128 27.744C12.016 27.52 11.96 27.296 11.96 27.072C11.96 26.704 12.088 26.384 12.344 26.112C12.616 25.824 12.952 25.68 13.352 25.68C13.656 25.68 13.928 25.776 14.168 25.968C14.776 26.464 15.376 26.84 15.968 27.096C16.576 27.352 17.32 27.48 18.2 27.48C18.792 27.48 19.336 27.392 19.832 27.216C20.328 27.024 20.728 26.776 21.032 26.472C21.336 26.152 21.488 25.792 21.488 25.392C21.488 24.912 21.344 24.504 21.056 24.168C20.768 23.832 20.328 23.552 19.736 23.328C19.144 23.088 18.392 22.904 17.48 22.776C16.616 22.648 15.856 22.456 15.2 22.2C14.544 21.928 13.992 21.592 13.544 21.192C13.112 20.776 12.784 20.296 12.56 19.752C12.336 19.192 12.224 18.568 12.224 17.88C12.224 16.84 12.488 15.952 13.016 15.216C13.56 14.48 14.288 13.92 15.2 13.536C16.112 13.152 17.12 12.96 18.224 12.96C19.264 12.96 20.224 13.12 21.104 13.44C22 13.744 22.728 14.136 23.288 14.616C23.752 14.984 23.984 15.408 23.984 15.888C23.984 16.24 23.848 16.56 23.576 16.848C23.304 17.136 22.984 17.28 22.616 17.28C22.376 17.28 22.16 17.208 21.968 17.064C21.712 16.84 21.368 16.632 20.936 16.44C20.504 16.232 20.048 16.064 19.568 15.936C19.088 15.792 18.64 15.72 18.224 15.72C17.536 15.72 16.952 15.808 16.472 15.984C16.008 16.16 15.656 16.4 15.416 16.704C15.176 17.008 15.056 17.36 15.056 17.76C15.056 18.24 15.192 18.64 15.464 18.96C15.752 19.264 16.16 19.512 16.688 19.704C17.216 19.88 17.848 20.04 18.584 20.184C19.544 20.36 20.384 20.568 21.104 20.808C21.84 21.048 22.448 21.36 22.928 21.744C23.408 22.112 23.768 22.584 24.008 23.16C24.248 23.72 24.368 24.408 24.368 25.224C24.368 26.264 24.08 27.16 23.504 27.912C22.928 28.664 22.168 29.24 21.224 29.64C20.296 30.04 19.288 30.24 18.2 30.24ZM28.6323 13.176C28.8563 13.176 29.0883 13.24 29.3283 13.368C29.5843 13.48 29.7763 13.632 29.9043 13.824L35.7363 22.8L34.5363 22.752L40.5123 13.824C40.8163 13.392 41.2083 13.176 41.6883 13.176C42.0723 13.176 42.4163 13.312 42.7203 13.584C43.0243 13.856 43.1763 14.208 43.1763 14.64V28.536C43.1763 28.952 43.0403 29.304 42.7683 29.592C42.4963 29.864 42.1363 30 41.6883 30C41.2403 30 40.8723 29.864 40.5843 29.592C40.3123 29.304 40.1763 28.952 40.1763 28.536V17.232L41.1123 17.448L36.2163 24.912C36.0723 25.088 35.8883 25.24 35.6643 25.368C35.4563 25.496 35.2403 25.552 35.0163 25.536C34.8083 25.552 34.5923 25.496 34.3683 25.368C34.1603 25.24 33.9843 25.088 33.8403 24.912L29.2563 17.664L29.8803 16.392V28.536C29.8803 28.952 29.7523 29.304 29.4963 29.592C29.2403 29.864 28.9043 30 28.4883 30C28.0883 30 27.7603 29.864 27.5043 29.592C27.2483 29.304 27.1203 28.952 27.1203 28.536V14.64C27.1203 14.24 27.2643 13.896 27.5523 13.608C27.8563 13.32 28.2163 13.176 28.6323 13.176ZM58.3524 30C57.9044 30 57.5444 29.816 57.2724 29.448L51.7284 22.152L53.9124 19.92L59.6484 27.504C59.8724 27.808 59.9844 28.136 59.9844 28.488C59.9844 28.936 59.8164 29.304 59.4804 29.592C59.1444 29.864 58.7684 30 58.3524 30ZM58.6404 13.08C59.0244 13.08 59.3364 13.24 59.5764 13.56C59.8324 13.864 59.9604 14.176 59.9604 14.496C59.9604 14.832 59.8164 15.144 59.5284 15.432L49.4724 25.056L49.3524 21.624L57.4644 13.632C57.8324 13.264 58.2244 13.08 58.6404 13.08ZM48.2724 30C47.8244 30 47.4644 29.864 47.1924 29.592C46.9204 29.304 46.7844 28.952 46.7844 28.536V14.664C46.7844 14.248 46.9284 13.904 47.2164 13.632C47.5044 13.344 47.8724 13.2 48.3204 13.2C48.7684 13.2 49.1204 13.344 49.3764 13.632C49.6484 13.904 49.7844 14.248 49.7844 14.664V28.536C49.7844 28.952 49.6484 29.304 49.3764 29.592C49.1044 29.864 48.7364 30 48.2724 30ZM75.2549 13.2C75.6389 13.2 75.9509 13.328 76.1909 13.584C76.4309 13.84 76.5509 14.16 76.5509 14.544V28.536C76.5509 28.952 76.4069 29.304 76.1189 29.592C75.8469 29.864 75.5029 30 75.0869 30C74.8789 30 74.6629 29.968 74.4389 29.904C74.2309 29.824 74.0709 29.72 73.9589 29.592L64.5269 17.616L65.1509 17.232V28.656C65.1509 29.04 65.0229 29.36 64.7669 29.616C64.5269 29.872 64.2069 30 63.8069 30C63.4229 30 63.1109 29.872 62.8709 29.616C62.6309 29.36 62.5109 29.04 62.5109 28.656V14.664C62.5109 14.248 62.6469 13.904 62.9189 13.632C63.2069 13.344 63.5589 13.2 63.9749 13.2C64.1989 13.2 64.4309 13.248 64.6709 13.344C64.9109 13.424 65.0869 13.552 65.1989 13.728L74.3429 25.392L73.9349 25.68V14.544C73.9349 14.16 74.0549 13.84 74.2949 13.584C74.5349 13.328 74.8549 13.2 75.2549 13.2ZM90.7979 30C90.3499 30 89.9819 29.864 89.6939 29.592C89.4059 29.304 89.2619 28.952 89.2619 28.536V16.44L89.5979 16.968L87.8459 18.264C87.6219 18.44 87.3419 18.528 87.0059 18.528C86.6219 18.528 86.2859 18.384 85.9979 18.096C85.7099 17.808 85.5659 17.464 85.5659 17.064C85.5659 16.552 85.8139 16.136 86.3099 15.816L89.7659 13.512C89.9259 13.4 90.1019 13.32 90.2939 13.272C90.5019 13.224 90.6939 13.2 90.8699 13.2C91.3339 13.2 91.7019 13.344 91.9739 13.632C92.2459 13.904 92.3819 14.248 92.3819 14.664V28.536C92.3819 28.952 92.2299 29.304 91.9259 29.592C91.6379 29.864 91.2619 30 90.7979 30ZM106.853 30.24C105.941 30.24 105.093 30.056 104.309 29.688C103.525 29.32 102.885 28.792 102.389 28.104C102.197 27.816 102.101 27.536 102.101 27.264C102.101 26.864 102.253 26.528 102.557 26.256C102.877 25.984 103.189 25.848 103.493 25.848C103.733 25.848 103.965 25.92 104.189 26.064C104.429 26.208 104.645 26.376 104.837 26.568C105.157 26.856 105.469 27.064 105.773 27.192C106.093 27.304 106.453 27.36 106.853 27.36C107.333 27.36 107.781 27.24 108.197 27C108.613 26.76 108.949 26.44 109.205 26.04C109.461 25.64 109.589 25.208 109.589 24.744V14.664C109.589 14.248 109.741 13.904 110.045 13.632C110.349 13.344 110.701 13.2 111.101 13.2C111.549 13.2 111.909 13.344 112.181 13.632C112.453 13.904 112.589 14.248 112.589 14.664V24.744C112.589 25.72 112.333 26.624 111.821 27.456C111.309 28.288 110.621 28.96 109.757 29.472C108.893 29.984 107.925 30.24 106.853 30.24ZM126.455 16.92C126.871 16.92 127.215 17.056 127.487 17.328C127.759 17.6 127.895 17.952 127.895 18.384V28.536C127.895 28.952 127.759 29.304 127.487 29.592C127.215 29.864 126.871 30 126.455 30C126.039 30 125.695 29.864 125.423 29.592C125.151 29.304 125.015 28.952 125.015 28.536V27.36L125.543 27.576C125.543 27.784 125.431 28.04 125.207 28.344C124.983 28.632 124.679 28.92 124.295 29.208C123.911 29.496 123.455 29.744 122.927 29.952C122.415 30.144 121.855 30.24 121.247 30.24C120.143 30.24 119.143 29.96 118.247 29.4C117.351 28.824 116.639 28.04 116.111 27.048C115.599 26.04 115.343 24.888 115.343 23.592C115.343 22.28 115.599 21.128 116.111 20.136C116.639 19.128 117.343 18.344 118.223 17.784C119.103 17.208 120.079 16.92 121.151 16.92C121.839 16.92 122.471 17.024 123.047 17.232C123.623 17.44 124.119 17.704 124.535 18.024C124.967 18.344 125.295 18.672 125.519 19.008C125.759 19.328 125.879 19.6 125.879 19.824L125.015 20.136V18.384C125.015 17.968 125.151 17.624 125.423 17.352C125.695 17.064 126.039 16.92 126.455 16.92ZM121.607 27.6C122.311 27.6 122.927 27.424 123.455 27.072C123.983 26.72 124.391 26.24 124.679 25.632C124.983 25.024 125.135 24.344 125.135 23.592C125.135 22.824 124.983 22.136 124.679 21.528C124.391 20.92 123.983 20.44 123.455 20.088C122.927 19.736 122.311 19.56 121.607 19.56C120.919 19.56 120.311 19.736 119.783 20.088C119.255 20.44 118.839 20.92 118.535 21.528C118.247 22.136 118.103 22.824 118.103 23.592C118.103 24.344 118.247 25.024 118.535 25.632C118.839 26.24 119.255 26.72 119.783 27.072C120.311 27.424 120.919 27.6 121.607 27.6ZM132.693 30C132.277 30 131.933 29.864 131.661 29.592C131.389 29.304 131.253 28.952 131.253 28.536V13.704C131.253 13.288 131.389 12.944 131.661 12.672C131.933 12.384 132.277 12.24 132.693 12.24C133.109 12.24 133.453 12.384 133.725 12.672C133.997 12.944 134.133 13.288 134.133 13.704V28.536C134.133 28.952 133.997 29.304 133.725 29.592C133.453 29.864 133.109 30 132.693 30ZM140.325 17.16C140.693 17.16 141.013 17.312 141.285 17.616C141.557 17.92 141.693 18.216 141.693 18.504C141.693 18.888 141.501 19.248 141.117 19.584L133.893 26.232L133.773 22.92L139.269 17.616C139.573 17.312 139.925 17.16 140.325 17.16ZM140.685 29.976C140.269 29.976 139.917 29.816 139.629 29.496L135.189 24.792L137.373 22.776L141.693 27.48C141.997 27.8 142.149 28.16 142.149 28.56C142.149 28.976 141.981 29.32 141.645 29.592C141.325 29.848 141.005 29.976 140.685 29.976ZM155.095 16.92C155.511 16.92 155.855 17.056 156.127 17.328C156.399 17.6 156.535 17.952 156.535 18.384V28.536C156.535 28.952 156.399 29.304 156.127 29.592C155.855 29.864 155.511 30 155.095 30C154.679 30 154.335 29.864 154.063 29.592C153.791 29.304 153.655 28.952 153.655 28.536V27.36L154.183 27.576C154.183 27.784 154.071 28.04 153.847 28.344C153.623 28.632 153.319 28.92 152.935 29.208C152.551 29.496 152.095 29.744 151.567 29.952C151.055 30.144 150.495 30.24 149.887 30.24C148.783 30.24 147.783 29.96 146.887 29.4C145.991 28.824 145.279 28.04 144.751 27.048C144.239 26.04 143.983 24.888 143.983 23.592C143.983 22.28 144.239 21.128 144.751 20.136C145.279 19.128 145.983 18.344 146.863 17.784C147.743 17.208 148.719 16.92 149.791 16.92C150.479 16.92 151.111 17.024 151.687 17.232C152.263 17.44 152.759 17.704 153.175 18.024C153.607 18.344 153.935 18.672 154.159 19.008C154.399 19.328 154.519 19.6 154.519 19.824L153.655 20.136V18.384C153.655 17.968 153.791 17.624 154.063 17.352C154.335 17.064 154.679 16.92 155.095 16.92ZM150.247 27.6C150.951 27.6 151.567 27.424 152.095 27.072C152.623 26.72 153.031 26.24 153.319 25.632C153.623 25.024 153.775 24.344 153.775 23.592C153.775 22.824 153.623 22.136 153.319 21.528C153.031 20.92 152.623 20.44 152.095 20.088C151.567 19.736 150.951 19.56 150.247 19.56C149.559 19.56 148.951 19.736 148.423 20.088C147.895 20.44 147.479 20.92 147.175 21.528C146.887 22.136 146.743 22.824 146.743 23.592C146.743 24.344 146.887 25.024 147.175 25.632C147.479 26.24 147.895 26.72 148.423 27.072C148.951 27.424 149.559 27.6 150.247 27.6ZM161.094 30C160.678 30 160.334 29.864 160.062 29.592C159.79 29.304 159.654 28.952 159.654 28.536V18.624C159.654 18.208 159.79 17.864 160.062 17.592C160.334 17.304 160.678 17.16 161.094 17.16C161.51 17.16 161.854 17.304 162.126 17.592C162.398 17.864 162.534 18.208 162.534 18.624V20.88L162.366 19.272C162.542 18.888 162.766 18.552 163.038 18.264C163.326 17.96 163.646 17.712 163.998 17.52C164.35 17.312 164.726 17.16 165.126 17.064C165.526 16.968 165.926 16.92 166.326 16.92C166.806 16.92 167.206 17.056 167.526 17.328C167.862 17.6 168.03 17.92 168.03 18.288C168.03 18.816 167.894 19.2 167.622 19.44C167.35 19.664 167.054 19.776 166.734 19.776C166.43 19.776 166.15 19.72 165.894 19.608C165.654 19.496 165.374 19.44 165.054 19.44C164.766 19.44 164.47 19.512 164.166 19.656C163.878 19.784 163.606 19.992 163.35 20.28C163.11 20.568 162.91 20.928 162.75 21.36C162.606 21.776 162.534 22.272 162.534 22.848V28.536C162.534 28.952 162.398 29.304 162.126 29.592C161.854 29.864 161.51 30 161.094 30ZM170.204 17.4H175.892C176.276 17.4 176.596 17.528 176.852 17.784C177.108 18.04 177.236 18.36 177.236 18.744C177.236 19.112 177.108 19.424 176.852 19.68C176.596 19.92 176.276 20.04 175.892 20.04H170.204C169.82 20.04 169.5 19.912 169.244 19.656C168.988 19.4 168.86 19.08 168.86 18.696C168.86 18.328 168.988 18.024 169.244 17.784C169.5 17.528 169.82 17.4 170.204 17.4ZM172.772 14.4C173.188 14.4 173.524 14.544 173.78 14.832C174.052 15.104 174.188 15.448 174.188 15.864V26.544C174.188 26.768 174.228 26.952 174.308 27.096C174.404 27.24 174.524 27.344 174.668 27.408C174.828 27.472 174.996 27.504 175.172 27.504C175.364 27.504 175.54 27.472 175.7 27.408C175.86 27.328 176.044 27.288 176.252 27.288C176.476 27.288 176.676 27.392 176.852 27.6C177.044 27.808 177.14 28.096 177.14 28.464C177.14 28.912 176.892 29.28 176.396 29.568C175.916 29.856 175.396 30 174.836 30C174.5 30 174.124 29.976 173.708 29.928C173.308 29.864 172.924 29.728 172.556 29.52C172.204 29.296 171.908 28.96 171.668 28.512C171.428 28.064 171.308 27.448 171.308 26.664V15.864C171.308 15.448 171.444 15.104 171.716 14.832C172.004 14.544 172.356 14.4 172.772 14.4ZM190.392 16.92C190.808 16.92 191.152 17.056 191.424 17.328C191.696 17.6 191.832 17.952 191.832 18.384V28.536C191.832 28.952 191.696 29.304 191.424 29.592C191.152 29.864 190.808 30 190.392 30C189.976 30 189.632 29.864 189.36 29.592C189.088 29.304 188.952 28.952 188.952 28.536V27.36L189.48 27.576C189.48 27.784 189.368 28.04 189.144 28.344C188.92 28.632 188.616 28.92 188.232 29.208C187.848 29.496 187.392 29.744 186.864 29.952C186.352 30.144 185.792 30.24 185.184 30.24C184.08 30.24 183.08 29.96 182.184 29.4C181.288 28.824 180.576 28.04 180.048 27.048C179.536 26.04 179.28 24.888 179.28 23.592C179.28 22.28 179.536 21.128 180.048 20.136C180.576 19.128 181.28 18.344 182.16 17.784C183.04 17.208 184.016 16.92 185.088 16.92C185.776 16.92 186.408 17.024 186.984 17.232C187.56 17.44 188.056 17.704 188.472 18.024C188.904 18.344 189.232 18.672 189.456 19.008C189.696 19.328 189.816 19.6 189.816 19.824L188.952 20.136V18.384C188.952 17.968 189.088 17.624 189.36 17.352C189.632 17.064 189.976 16.92 190.392 16.92ZM185.544 27.6C186.248 27.6 186.864 27.424 187.392 27.072C187.92 26.72 188.328 26.24 188.616 25.632C188.92 25.024 189.072 24.344 189.072 23.592C189.072 22.824 188.92 22.136 188.616 21.528C188.328 20.92 187.92 20.44 187.392 20.088C186.864 19.736 186.248 19.56 185.544 19.56C184.856 19.56 184.248 19.736 183.72 20.088C183.192 20.44 182.776 20.92 182.472 21.528C182.184 22.136 182.04 22.824 182.04 23.592C182.04 24.344 182.184 25.024 182.472 25.632C182.776 26.24 183.192 26.72 183.72 27.072C184.248 27.424 184.856 27.6 185.544 27.6ZM211.109 27.36C211.493 27.36 211.813 27.488 212.069 27.744C212.325 28 212.453 28.32 212.453 28.704C212.453 29.072 212.325 29.384 212.069 29.64C211.813 29.88 211.493 30 211.109 30H202.949C202.533 30 202.205 29.872 201.965 29.616C201.725 29.36 201.605 29.032 201.605 28.632C201.605 28.232 201.749 27.88 202.037 27.576L207.269 21.984C207.861 21.344 208.325 20.688 208.661 20.016C209.013 19.344 209.189 18.76 209.189 18.264C209.189 17.464 208.957 16.824 208.493 16.344C208.029 15.848 207.413 15.6 206.645 15.6C206.341 15.6 206.029 15.672 205.709 15.816C205.389 15.96 205.077 16.16 204.773 16.416C204.485 16.672 204.213 16.968 203.957 17.304C203.765 17.56 203.573 17.72 203.381 17.784C203.189 17.848 203.013 17.88 202.853 17.88C202.501 17.88 202.173 17.752 201.869 17.496C201.581 17.224 201.437 16.912 201.437 16.56C201.437 16.288 201.525 16.024 201.701 15.768C201.893 15.512 202.125 15.248 202.397 14.976C202.797 14.576 203.245 14.224 203.741 13.92C204.237 13.616 204.749 13.384 205.277 13.224C205.805 13.048 206.317 12.96 206.813 12.96C207.885 12.96 208.813 13.176 209.597 13.608C210.397 14.024 211.013 14.624 211.445 15.408C211.877 16.176 212.093 17.088 212.093 18.144C212.093 19.024 211.829 20.008 211.301 21.096C210.789 22.168 210.093 23.176 209.213 24.12L205.973 27.576L205.709 27.36H211.109ZM221.149 30.24C219.773 30.24 218.605 29.88 217.645 29.16C216.701 28.424 215.981 27.408 215.485 26.112C214.989 24.8 214.741 23.296 214.741 21.6C214.741 19.888 214.989 18.384 215.485 17.088C215.981 15.792 216.701 14.784 217.645 14.064C218.605 13.328 219.773 12.96 221.149 12.96C222.525 12.96 223.685 13.328 224.629 14.064C225.589 14.784 226.317 15.792 226.813 17.088C227.309 18.384 227.557 19.888 227.557 21.6C227.557 23.296 227.309 24.8 226.813 26.112C226.317 27.408 225.589 28.424 224.629 29.16C223.685 29.88 222.525 30.24 221.149 30.24ZM221.149 27.36C221.821 27.36 222.397 27.152 222.877 26.736C223.373 26.304 223.757 25.664 224.029 24.816C224.301 23.952 224.437 22.88 224.437 21.6C224.437 20.304 224.301 19.232 224.029 18.384C223.757 17.536 223.373 16.904 222.877 16.488C222.397 16.056 221.821 15.84 221.149 15.84C220.493 15.84 219.917 16.056 219.421 16.488C218.925 16.904 218.541 17.536 218.269 18.384C217.997 19.232 217.861 20.304 217.861 21.6C217.861 22.88 217.997 23.952 218.269 24.816C218.541 25.664 218.925 26.304 219.421 26.736C219.917 27.152 220.493 27.36 221.149 27.36ZM239.515 27.36C239.899 27.36 240.219 27.488 240.475 27.744C240.731 28 240.859 28.32 240.859 28.704C240.859 29.072 240.731 29.384 240.475 29.64C240.219 29.88 239.899 30 239.515 30H231.355C230.939 30 230.611 29.872 230.371 29.616C230.131 29.36 230.011 29.032 230.011 28.632C230.011 28.232 230.155 27.88 230.443 27.576L235.675 21.984C236.267 21.344 236.731 20.688 237.067 20.016C237.419 19.344 237.595 18.76 237.595 18.264C237.595 17.464 237.363 16.824 236.899 16.344C236.435 15.848 235.819 15.6 235.051 15.6C234.747 15.6 234.435 15.672 234.115 15.816C233.795 15.96 233.483 16.16 233.179 16.416C232.891 16.672 232.619 16.968 232.363 17.304C232.171 17.56 231.979 17.72 231.787 17.784C231.595 17.848 231.419 17.88 231.259 17.88C230.907 17.88 230.579 17.752 230.275 17.496C229.987 17.224 229.843 16.912 229.843 16.56C229.843 16.288 229.931 16.024 230.107 15.768C230.299 15.512 230.531 15.248 230.803 14.976C231.203 14.576 231.651 14.224 232.147 13.92C232.643 13.616 233.155 13.384 233.683 13.224C234.211 13.048 234.723 12.96 235.219 12.96C236.291 12.96 237.219 13.176 238.003 13.608C238.803 14.024 239.419 14.624 239.851 15.408C240.283 16.176 240.499 17.088 240.499 18.144C240.499 19.024 240.235 20.008 239.707 21.096C239.195 22.168 238.499 23.176 237.619 24.12L234.379 27.576L234.115 27.36H239.515ZM253.18 27.36C253.564 27.36 253.884 27.488 254.14 27.744C254.396 28 254.523 28.32 254.523 28.704C254.523 29.072 254.396 29.384 254.14 29.64C253.884 29.88 253.564 30 253.18 30H245.02C244.604 30 244.276 29.872 244.036 29.616C243.796 29.36 243.676 29.032 243.676 28.632C243.676 28.232 243.82 27.88 244.108 27.576L249.34 21.984C249.932 21.344 250.396 20.688 250.732 20.016C251.084 19.344 251.26 18.76 251.26 18.264C251.26 17.464 251.028 16.824 250.564 16.344C250.1 15.848 249.484 15.6 248.716 15.6C248.412 15.6 248.1 15.672 247.78 15.816C247.46 15.96 247.148 16.16 246.844 16.416C246.556 16.672 246.284 16.968 246.028 17.304C245.836 17.56 245.644 17.72 245.452 17.784C245.26 17.848 245.084 17.88 244.924 17.88C244.572 17.88 244.244 17.752 243.94 17.496C243.652 17.224 243.508 16.912 243.508 16.56C243.508 16.288 243.596 16.024 243.771 15.768C243.964 15.512 244.196 15.248 244.468 14.976C244.868 14.576 245.316 14.224 245.812 13.92C246.308 13.616 246.82 13.384 247.348 13.224C247.876 13.048 248.388 12.96 248.884 12.96C249.956 12.96 250.884 13.176 251.668 13.608C252.468 14.024 253.084 14.624 253.516 15.408C253.948 16.176 254.164 17.088 254.164 18.144C254.164 19.024 253.9 20.008 253.372 21.096C252.86 22.168 252.164 23.176 251.284 24.12L248.044 27.576L247.78 27.36H253.18Z" fill="#3A3A3A"/>
</svg>
