<svg width="57" height="57" viewBox="0 0 57 57" fill="none" xmlns="http://www.w3.org/2000/svg">
<path d="M34 18H24C21.2386 18 19 20.2386 19 23V33C19 35.7614 21.2386 38 24 38H34C36.7614 38 39 35.7614 39 33V23C39 20.2386 36.7614 18 34 18Z" stroke="#F0DDE3" stroke-width="2" stroke-linecap="round" stroke-linejoin="round"/>
<path d="M32.9997 27.3701C33.1231 28.2023 32.981 29.0523 32.5935 29.7991C32.206 30.5459 31.5929 31.1515 30.8413 31.5297C30.0898 31.908 29.2382 32.0397 28.4075 31.906C27.5768 31.7723 26.8095 31.3801 26.2145 30.7852C25.6196 30.1903 25.2274 29.4229 25.0938 28.5923C24.9601 27.7616 25.0918 26.91 25.47 26.1584C25.8483 25.4069 26.4539 24.7938 27.2007 24.4063C27.9475 24.0188 28.7975 23.8766 29.6297 24.0001C30.4786 24.1259 31.2646 24.5215 31.8714 25.1284C32.4782 25.7352 32.8738 26.5211 32.9997 27.3701Z" stroke="#F0DDE3" stroke-width="2" stroke-linecap="round" stroke-linejoin="round"/>
<path d="M34.5 22.5H34.51" stroke="#F0DDE3" stroke-width="2" stroke-linecap="round" stroke-linejoin="round"/>
<path d="M56.5 28.5C56.5 43.964 43.964 56.5 28.5 56.5C13.036 56.5 0.5 43.964 0.5 28.5C0.5 13.036 13.036 0.5 28.5 0.5C43.964 0.5 56.5 13.036 56.5 28.5Z" stroke="#F0DDE3"/>
</svg>
