<svg width="264" height="36" viewBox="0 0 264 36" fill="none" xmlns="http://www.w3.org/2000/svg">
<circle cx="5.5" cy="5.5" r="5.5" fill="#232323"/>
<path d="M18.2 30.24C17.08 30.24 16.072 30.104 15.176 29.832C14.28 29.544 13.424 29.048 12.608 28.344C12.4 28.168 12.24 27.968 12.128 27.744C12.016 27.52 11.96 27.296 11.96 27.072C11.96 26.704 12.088 26.384 12.344 26.112C12.616 25.824 12.952 25.68 13.352 25.68C13.656 25.68 13.928 25.776 14.168 25.968C14.776 26.464 15.376 26.84 15.968 27.096C16.576 27.352 17.32 27.48 18.2 27.48C18.792 27.48 19.336 27.392 19.832 27.216C20.328 27.024 20.728 26.776 21.032 26.472C21.336 26.152 21.488 25.792 21.488 25.392C21.488 24.912 21.344 24.504 21.056 24.168C20.768 23.832 20.328 23.552 19.736 23.328C19.144 23.088 18.392 22.904 17.48 22.776C16.616 22.648 15.856 22.456 15.2 22.2C14.544 21.928 13.992 21.592 13.544 21.192C13.112 20.776 12.784 20.296 12.56 19.752C12.336 19.192 12.224 18.568 12.224 17.88C12.224 16.84 12.488 15.952 13.016 15.216C13.56 14.48 14.288 13.92 15.2 13.536C16.112 13.152 17.12 12.96 18.224 12.96C19.264 12.96 20.224 13.12 21.104 13.44C22 13.744 22.728 14.136 23.288 14.616C23.752 14.984 23.984 15.408 23.984 15.888C23.984 16.24 23.848 16.56 23.576 16.848C23.304 17.136 22.984 17.28 22.616 17.28C22.376 17.28 22.16 17.208 21.968 17.064C21.712 16.84 21.368 16.632 20.936 16.44C20.504 16.232 20.048 16.064 19.568 15.936C19.088 15.792 18.64 15.72 18.224 15.72C17.536 15.72 16.952 15.808 16.472 15.984C16.008 16.16 15.656 16.4 15.416 16.704C15.176 17.008 15.056 17.36 15.056 17.76C15.056 18.24 15.192 18.64 15.464 18.96C15.752 19.264 16.16 19.512 16.688 19.704C17.216 19.88 17.848 20.04 18.584 20.184C19.544 20.36 20.384 20.568 21.104 20.808C21.84 21.048 22.448 21.36 22.928 21.744C23.408 22.112 23.768 22.584 24.008 23.16C24.248 23.72 24.368 24.408 24.368 25.224C24.368 26.264 24.08 27.16 23.504 27.912C22.928 28.664 22.168 29.24 21.224 29.64C20.296 30.04 19.288 30.24 18.2 30.24ZM34.3203 13.2C35.4723 13.2 36.4963 13.416 37.3923 13.848C38.2883 14.28 39.0403 14.888 39.6483 15.672C40.2723 16.44 40.7363 17.336 41.0403 18.36C41.3603 19.368 41.5203 20.448 41.5203 21.6C41.5203 23.152 41.2403 24.568 40.6803 25.848C40.1203 27.112 39.3043 28.12 38.2323 28.872C37.1763 29.624 35.8723 30 34.3203 30H28.5843C28.1683 30 27.8163 29.864 27.5283 29.592C27.2563 29.304 27.1203 28.952 27.1203 28.536V14.664C27.1203 14.248 27.2563 13.904 27.5283 13.632C27.8163 13.344 28.1683 13.2 28.5843 13.2H34.3203ZM34.0803 27.24C35.0883 27.24 35.9123 26.984 36.5523 26.472C37.1923 25.944 37.6563 25.256 37.9443 24.408C38.2483 23.544 38.4003 22.608 38.4003 21.6C38.4003 20.848 38.3123 20.136 38.1363 19.464C37.9763 18.776 37.7203 18.176 37.3683 17.664C37.0163 17.136 36.5683 16.72 36.0243 16.416C35.4803 16.112 34.8323 15.96 34.0803 15.96H29.8803L30.1203 15.744V27.504L29.9763 27.24H34.0803ZM47.2766 28.536C47.2766 28.952 47.1246 29.304 46.8206 29.592C46.5166 29.864 46.1646 30 45.7646 30C45.3166 30 44.9566 29.864 44.6846 29.592C44.4126 29.304 44.2766 28.952 44.2766 28.536V14.664C44.2766 14.248 44.4206 13.904 44.7086 13.632C44.9966 13.344 45.3646 13.2 45.8126 13.2C46.1966 13.2 46.5326 13.344 46.8206 13.632C47.1246 13.904 47.2766 14.248 47.2766 14.664V28.536ZM56.5739 30C56.1259 30 55.7579 29.864 55.4699 29.592C55.1819 29.304 55.0379 28.952 55.0379 28.536V14.616H58.1579V28.536C58.1579 28.952 58.0059 29.304 57.7019 29.592C57.4139 29.864 57.0379 30 56.5739 30ZM51.2699 15.96C50.8539 15.96 50.5019 15.832 50.2139 15.576C49.9419 15.32 49.8059 14.984 49.8059 14.568C49.8059 14.152 49.9419 13.824 50.2139 13.584C50.5019 13.328 50.8539 13.2 51.2699 13.2H61.9259C62.3419 13.2 62.6859 13.328 62.9579 13.584C63.2459 13.84 63.3899 14.176 63.3899 14.592C63.3899 15.008 63.2459 15.344 62.9579 15.6C62.6859 15.84 62.3419 15.96 61.9259 15.96H51.2699ZM75.6359 28.536C75.6359 28.952 75.4839 29.304 75.1799 29.592C74.8759 29.864 74.5239 30 74.1239 30C73.6759 30 73.3159 29.864 73.0439 29.592C72.7719 29.304 72.6359 28.952 72.6359 28.536V14.664C72.6359 14.248 72.7799 13.904 73.0679 13.632C73.3559 13.344 73.7239 13.2 74.1719 13.2C74.5559 13.2 74.8919 13.344 75.1799 13.632C75.4839 13.904 75.6359 14.248 75.6359 14.664V28.536ZM85.6533 16.92C86.7733 16.92 87.7733 17.208 88.6533 17.784C89.5493 18.344 90.2533 19.12 90.7653 20.112C91.2933 21.104 91.5573 22.256 91.5573 23.568C91.5573 24.88 91.2933 26.04 90.7653 27.048C90.2533 28.04 89.5573 28.824 88.6773 29.4C87.8133 29.96 86.8373 30.24 85.7493 30.24C85.1093 30.24 84.5093 30.136 83.9493 29.928C83.3893 29.72 82.8933 29.456 82.4613 29.136C82.0453 28.816 81.7173 28.496 81.4773 28.176C81.2533 27.84 81.1413 27.56 81.1413 27.336L81.8853 27.024V28.776C81.8853 29.192 81.7493 29.544 81.4773 29.832C81.2053 30.104 80.8613 30.24 80.4453 30.24C80.0293 30.24 79.6853 30.104 79.4133 29.832C79.1413 29.56 79.0053 29.208 79.0053 28.776V13.704C79.0053 13.288 79.1413 12.944 79.4133 12.672C79.6853 12.384 80.0293 12.24 80.4453 12.24C80.8613 12.24 81.2053 12.384 81.4773 12.672C81.7493 12.944 81.8853 13.288 81.8853 13.704V19.8L81.4773 19.584C81.4773 19.376 81.5893 19.128 81.8133 18.84C82.0373 18.536 82.3413 18.24 82.7253 17.952C83.1093 17.648 83.5493 17.4 84.0453 17.208C84.5573 17.016 85.0933 16.92 85.6533 16.92ZM85.2933 19.56C84.5893 19.56 83.9733 19.736 83.4453 20.088C82.9173 20.44 82.5013 20.92 82.1973 21.528C81.9093 22.12 81.7653 22.8 81.7653 23.568C81.7653 24.32 81.9093 25.008 82.1973 25.632C82.5013 26.24 82.9173 26.72 83.4453 27.072C83.9733 27.424 84.5893 27.6 85.2933 27.6C85.9973 27.6 86.6053 27.424 87.1173 27.072C87.6453 26.72 88.0533 26.24 88.3413 25.632C88.6453 25.008 88.7973 24.32 88.7973 23.568C88.7973 22.8 88.6453 22.12 88.3413 21.528C88.0533 20.92 87.6453 20.44 87.1173 20.088C86.6053 19.736 85.9973 19.56 85.2933 19.56ZM100.94 16.92C102.124 16.92 103.02 17.168 103.628 17.664C104.252 18.16 104.676 18.824 104.9 19.656C105.14 20.472 105.26 21.384 105.26 22.392V28.536C105.26 28.952 105.124 29.304 104.852 29.592C104.58 29.864 104.236 30 103.82 30C103.404 30 103.06 29.864 102.788 29.592C102.516 29.304 102.38 28.952 102.38 28.536V22.392C102.38 21.864 102.308 21.392 102.164 20.976C102.036 20.544 101.796 20.2 101.444 19.944C101.092 19.688 100.588 19.56 99.9316 19.56C99.2916 19.56 98.7476 19.688 98.2996 19.944C97.8676 20.2 97.5316 20.544 97.2916 20.976C97.0676 21.392 96.9556 21.864 96.9556 22.392V28.536C96.9556 28.952 96.8196 29.304 96.5476 29.592C96.2756 29.864 95.9316 30 95.5156 30C95.0996 30 94.7556 29.864 94.4836 29.592C94.2116 29.304 94.0756 28.952 94.0756 28.536V18.624C94.0756 18.208 94.2116 17.864 94.4836 17.592C94.7556 17.304 95.0996 17.16 95.5156 17.16C95.9316 17.16 96.2756 17.304 96.5476 17.592C96.8196 17.864 96.9556 18.208 96.9556 18.624V19.656L96.5956 19.584C96.7396 19.312 96.9476 19.024 97.2196 18.72C97.4916 18.4 97.8116 18.104 98.1796 17.832C98.5476 17.56 98.9636 17.344 99.4276 17.184C99.8916 17.008 100.396 16.92 100.94 16.92ZM117.901 17.16C118.317 17.16 118.661 17.304 118.932 17.592C119.205 17.864 119.341 18.208 119.341 18.624V24.72C119.341 26.416 118.869 27.76 117.925 28.752C116.981 29.744 115.621 30.24 113.845 30.24C112.069 30.24 110.709 29.744 109.765 28.752C108.837 27.76 108.373 26.416 108.373 24.72V18.624C108.373 18.208 108.509 17.864 108.781 17.592C109.053 17.304 109.397 17.16 109.812 17.16C110.229 17.16 110.573 17.304 110.845 17.592C111.117 17.864 111.253 18.208 111.253 18.624V24.72C111.253 25.696 111.469 26.424 111.901 26.904C112.333 27.368 112.981 27.6 113.845 27.6C114.725 27.6 115.381 27.368 115.813 26.904C116.245 26.424 116.461 25.696 116.461 24.72V18.624C116.461 18.208 116.597 17.864 116.869 17.592C117.141 17.304 117.485 17.16 117.901 17.16ZM125.578 28.536C125.578 28.952 125.434 29.304 125.146 29.592C124.874 29.864 124.53 30 124.114 30C123.714 30 123.378 29.864 123.106 29.592C122.834 29.304 122.698 28.952 122.698 28.536V13.704C122.698 13.288 122.834 12.944 123.106 12.672C123.394 12.384 123.746 12.24 124.162 12.24C124.578 12.24 124.914 12.384 125.17 12.672C125.442 12.944 125.578 13.288 125.578 13.704V28.536ZM139.806 30.24C138.894 30.24 138.046 30.056 137.262 29.688C136.478 29.32 135.838 28.792 135.342 28.104C135.15 27.816 135.054 27.536 135.054 27.264C135.054 26.864 135.206 26.528 135.51 26.256C135.83 25.984 136.142 25.848 136.446 25.848C136.686 25.848 136.918 25.92 137.142 26.064C137.382 26.208 137.598 26.376 137.79 26.568C138.11 26.856 138.422 27.064 138.726 27.192C139.046 27.304 139.406 27.36 139.806 27.36C140.286 27.36 140.734 27.24 141.15 27C141.566 26.76 141.902 26.44 142.158 26.04C142.414 25.64 142.542 25.208 142.542 24.744V14.664C142.542 14.248 142.694 13.904 142.998 13.632C143.302 13.344 143.654 13.2 144.054 13.2C144.502 13.2 144.862 13.344 145.134 13.632C145.406 13.904 145.542 14.248 145.542 14.664V24.744C145.542 25.72 145.286 26.624 144.774 27.456C144.262 28.288 143.574 28.96 142.71 29.472C141.846 29.984 140.878 30.24 139.806 30.24ZM159.408 16.92C159.824 16.92 160.168 17.056 160.44 17.328C160.712 17.6 160.848 17.952 160.848 18.384V28.536C160.848 28.952 160.712 29.304 160.44 29.592C160.168 29.864 159.824 30 159.408 30C158.992 30 158.648 29.864 158.376 29.592C158.104 29.304 157.968 28.952 157.968 28.536V27.36L158.496 27.576C158.496 27.784 158.384 28.04 158.16 28.344C157.936 28.632 157.632 28.92 157.248 29.208C156.864 29.496 156.408 29.744 155.88 29.952C155.368 30.144 154.808 30.24 154.2 30.24C153.096 30.24 152.096 29.96 151.2 29.4C150.304 28.824 149.592 28.04 149.064 27.048C148.552 26.04 148.296 24.888 148.296 23.592C148.296 22.28 148.552 21.128 149.064 20.136C149.592 19.128 150.296 18.344 151.176 17.784C152.056 17.208 153.032 16.92 154.104 16.92C154.792 16.92 155.424 17.024 156 17.232C156.576 17.44 157.072 17.704 157.488 18.024C157.92 18.344 158.248 18.672 158.472 19.008C158.712 19.328 158.832 19.6 158.832 19.824L157.968 20.136V18.384C157.968 17.968 158.104 17.624 158.376 17.352C158.648 17.064 158.992 16.92 159.408 16.92ZM154.56 27.6C155.264 27.6 155.88 27.424 156.408 27.072C156.936 26.72 157.344 26.24 157.632 25.632C157.936 25.024 158.088 24.344 158.088 23.592C158.088 22.824 157.936 22.136 157.632 21.528C157.344 20.92 156.936 20.44 156.408 20.088C155.88 19.736 155.264 19.56 154.56 19.56C153.872 19.56 153.264 19.736 152.736 20.088C152.208 20.44 151.792 20.92 151.488 21.528C151.2 22.136 151.056 22.824 151.056 23.592C151.056 24.344 151.2 25.024 151.488 25.632C151.792 26.24 152.208 26.72 152.736 27.072C153.264 27.424 153.872 27.6 154.56 27.6ZM172.15 27.36C172.534 27.36 172.854 27.488 173.11 27.744C173.366 27.984 173.494 28.296 173.494 28.68C173.494 29.048 173.366 29.36 173.11 29.616C172.854 29.872 172.534 30 172.15 30H164.422C164.022 30 163.702 29.856 163.462 29.568C163.222 29.28 163.11 28.992 163.126 28.704C163.142 28.464 163.174 28.256 163.222 28.08C163.27 27.888 163.39 27.672 163.582 27.432L169.558 19.704L169.51 20.04H164.638C164.254 20.04 163.934 19.912 163.678 19.656C163.422 19.4 163.294 19.08 163.294 18.696C163.294 18.328 163.422 18.024 163.678 17.784C163.934 17.528 164.254 17.4 164.638 17.4H172.03C172.398 17.4 172.71 17.536 172.966 17.808C173.222 18.08 173.334 18.424 173.302 18.84C173.286 19 173.254 19.16 173.206 19.32C173.174 19.48 173.07 19.672 172.894 19.896L167.014 27.504V27.36H172.15ZM186.103 16.92C186.519 16.92 186.863 17.056 187.135 17.328C187.407 17.6 187.543 17.952 187.543 18.384V28.536C187.543 28.952 187.407 29.304 187.135 29.592C186.863 29.864 186.519 30 186.103 30C185.687 30 185.343 29.864 185.071 29.592C184.799 29.304 184.663 28.952 184.663 28.536V27.36L185.191 27.576C185.191 27.784 185.079 28.04 184.855 28.344C184.631 28.632 184.327 28.92 183.943 29.208C183.559 29.496 183.103 29.744 182.575 29.952C182.063 30.144 181.503 30.24 180.895 30.24C179.791 30.24 178.791 29.96 177.895 29.4C176.999 28.824 176.287 28.04 175.759 27.048C175.247 26.04 174.991 24.888 174.991 23.592C174.991 22.28 175.247 21.128 175.759 20.136C176.287 19.128 176.991 18.344 177.871 17.784C178.751 17.208 179.727 16.92 180.799 16.92C181.487 16.92 182.119 17.024 182.695 17.232C183.271 17.44 183.767 17.704 184.183 18.024C184.615 18.344 184.943 18.672 185.167 19.008C185.407 19.328 185.527 19.6 185.527 19.824L184.663 20.136V18.384C184.663 17.968 184.799 17.624 185.071 17.352C185.343 17.064 185.687 16.92 186.103 16.92ZM181.255 27.6C181.959 27.6 182.575 27.424 183.103 27.072C183.631 26.72 184.039 26.24 184.327 25.632C184.631 25.024 184.783 24.344 184.783 23.592C184.783 22.824 184.631 22.136 184.327 21.528C184.039 20.92 183.631 20.44 183.103 20.088C182.575 19.736 181.959 19.56 181.255 19.56C180.567 19.56 179.959 19.736 179.431 20.088C178.903 20.44 178.487 20.92 178.183 21.528C177.895 22.136 177.751 22.824 177.751 23.592C177.751 24.344 177.895 25.024 178.183 25.632C178.487 26.24 178.903 26.72 179.431 27.072C179.959 27.424 180.567 27.6 181.255 27.6ZM192.102 30C191.686 30 191.342 29.864 191.07 29.592C190.798 29.304 190.662 28.952 190.662 28.536V18.624C190.662 18.208 190.798 17.864 191.07 17.592C191.342 17.304 191.686 17.16 192.102 17.16C192.518 17.16 192.862 17.304 193.134 17.592C193.406 17.864 193.542 18.208 193.542 18.624V20.88L193.374 19.272C193.55 18.888 193.774 18.552 194.046 18.264C194.334 17.96 194.654 17.712 195.006 17.52C195.358 17.312 195.734 17.16 196.134 17.064C196.534 16.968 196.934 16.92 197.334 16.92C197.814 16.92 198.214 17.056 198.534 17.328C198.87 17.6 199.038 17.92 199.038 18.288C199.038 18.816 198.902 19.2 198.63 19.44C198.358 19.664 198.062 19.776 197.742 19.776C197.438 19.776 197.158 19.72 196.902 19.608C196.662 19.496 196.382 19.44 196.062 19.44C195.774 19.44 195.478 19.512 195.174 19.656C194.886 19.784 194.614 19.992 194.358 20.28C194.118 20.568 193.918 20.928 193.758 21.36C193.614 21.776 193.542 22.272 193.542 22.848V28.536C193.542 28.952 193.406 29.304 193.134 29.592C192.862 29.864 192.518 30 192.102 30ZM203.78 28.536C203.78 28.952 203.644 29.304 203.372 29.592C203.1 29.864 202.756 30 202.34 30C201.924 30 201.58 29.864 201.308 29.592C201.036 29.304 200.9 28.952 200.9 28.536V18.624C200.9 18.208 201.036 17.864 201.308 17.592C201.58 17.304 201.924 17.16 202.34 17.16C202.756 17.16 203.1 17.304 203.372 17.592C203.644 17.864 203.78 18.208 203.78 18.624V28.536ZM202.316 15.6C201.772 15.6 201.388 15.512 201.164 15.336C200.94 15.16 200.828 14.848 200.828 14.4V13.944C200.828 13.48 200.948 13.168 201.188 13.008C201.444 12.832 201.828 12.744 202.34 12.744C202.9 12.744 203.292 12.832 203.516 13.008C203.74 13.184 203.852 13.496 203.852 13.944V14.4C203.852 14.864 203.732 15.184 203.492 15.36C203.252 15.52 202.86 15.6 202.316 15.6ZM222.898 27.36C223.282 27.36 223.602 27.488 223.858 27.744C224.114 28 224.242 28.32 224.242 28.704C224.242 29.072 224.114 29.384 223.858 29.64C223.602 29.88 223.282 30 222.898 30H214.738C214.322 30 213.994 29.872 213.754 29.616C213.514 29.36 213.394 29.032 213.394 28.632C213.394 28.232 213.538 27.88 213.826 27.576L219.058 21.984C219.65 21.344 220.114 20.688 220.45 20.016C220.802 19.344 220.978 18.76 220.978 18.264C220.978 17.464 220.746 16.824 220.282 16.344C219.818 15.848 219.202 15.6 218.434 15.6C218.13 15.6 217.818 15.672 217.498 15.816C217.178 15.96 216.866 16.16 216.562 16.416C216.274 16.672 216.002 16.968 215.746 17.304C215.554 17.56 215.362 17.72 215.17 17.784C214.978 17.848 214.802 17.88 214.642 17.88C214.29 17.88 213.962 17.752 213.658 17.496C213.37 17.224 213.226 16.912 213.226 16.56C213.226 16.288 213.314 16.024 213.49 15.768C213.682 15.512 213.914 15.248 214.186 14.976C214.586 14.576 215.034 14.224 215.53 13.92C216.026 13.616 216.538 13.384 217.066 13.224C217.594 13.048 218.106 12.96 218.602 12.96C219.674 12.96 220.602 13.176 221.386 13.608C222.186 14.024 222.802 14.624 223.234 15.408C223.666 16.176 223.882 17.088 223.882 18.144C223.882 19.024 223.618 20.008 223.09 21.096C222.578 22.168 221.882 23.176 221.002 24.12L217.762 27.576L217.498 27.36H222.898ZM232.938 30.24C231.562 30.24 230.394 29.88 229.434 29.16C228.49 28.424 227.77 27.408 227.274 26.112C226.778 24.8 226.53 23.296 226.53 21.6C226.53 19.888 226.778 18.384 227.274 17.088C227.77 15.792 228.49 14.784 229.434 14.064C230.394 13.328 231.562 12.96 232.938 12.96C234.314 12.96 235.474 13.328 236.418 14.064C237.378 14.784 238.106 15.792 238.602 17.088C239.098 18.384 239.346 19.888 239.346 21.6C239.346 23.296 239.098 24.8 238.602 26.112C238.106 27.408 237.378 28.424 236.418 29.16C235.474 29.88 234.314 30.24 232.938 30.24ZM232.938 27.36C233.61 27.36 234.186 27.152 234.666 26.736C235.162 26.304 235.546 25.664 235.818 24.816C236.09 23.952 236.226 22.88 236.226 21.6C236.226 20.304 236.09 19.232 235.818 18.384C235.546 17.536 235.162 16.904 234.666 16.488C234.186 16.056 233.61 15.84 232.938 15.84C232.282 15.84 231.706 16.056 231.21 16.488C230.714 16.904 230.33 17.536 230.058 18.384C229.786 19.232 229.65 20.304 229.65 21.6C229.65 22.88 229.786 23.952 230.058 24.816C230.33 25.664 230.714 26.304 231.21 26.736C231.706 27.152 232.282 27.36 232.938 27.36ZM246.025 30C245.577 30 245.209 29.864 244.921 29.592C244.633 29.304 244.489 28.952 244.489 28.536V16.44L244.825 16.968L243.073 18.264C242.849 18.44 242.569 18.528 242.233 18.528C241.849 18.528 241.513 18.384 241.225 18.096C240.937 17.808 240.793 17.464 240.793 17.064C240.793 16.552 241.041 16.136 241.537 15.816L244.993 13.512C245.153 13.4 245.329 13.32 245.521 13.272C245.729 13.224 245.921 13.2 246.097 13.2C246.561 13.2 246.929 13.344 247.201 13.632C247.473 13.904 247.609 14.248 247.609 14.664V28.536C247.609 28.952 247.457 29.304 247.153 29.592C246.865 29.864 246.489 30 246.025 30ZM255.425 30.24C254.833 30.24 254.201 30.152 253.529 29.976C252.857 29.784 252.305 29.512 251.873 29.16C251.665 28.984 251.497 28.76 251.369 28.488C251.257 28.2 251.201 27.928 251.201 27.672C251.201 27.4 251.313 27.144 251.537 26.904C251.777 26.664 252.113 26.544 252.545 26.544C252.833 26.544 253.193 26.696 253.625 27C253.881 27.16 254.161 27.304 254.465 27.432C254.769 27.56 255.081 27.624 255.401 27.624C256.169 27.624 256.833 27.488 257.393 27.216C257.953 26.928 258.385 26.536 258.689 26.04C258.993 25.544 259.145 24.96 259.145 24.288C259.145 23.68 259.001 23.16 258.713 22.728C258.441 22.296 258.073 21.96 257.609 21.72C257.161 21.48 256.673 21.36 256.145 21.36C255.649 21.36 255.217 21.44 254.849 21.6C254.481 21.76 254.145 21.928 253.841 22.104C253.537 22.264 253.233 22.344 252.929 22.344C252.401 22.344 252.009 22.232 251.753 22.008C251.497 21.768 251.337 21.488 251.273 21.168C251.209 20.848 251.193 20.56 251.225 20.304L251.969 14.472C252.033 14.136 252.193 13.864 252.449 13.656C252.721 13.432 253.041 13.32 253.409 13.32H260.345C260.729 13.32 261.049 13.448 261.305 13.704C261.561 13.96 261.689 14.28 261.689 14.664C261.689 15.032 261.561 15.344 261.305 15.6C261.049 15.84 260.729 15.96 260.345 15.96H254.153L254.417 15.744L253.769 20.616L253.457 19.704C253.553 19.544 253.761 19.392 254.081 19.248C254.401 19.104 254.769 18.984 255.185 18.888C255.601 18.776 256.009 18.72 256.409 18.72C257.481 18.72 258.441 18.968 259.289 19.464C260.137 19.944 260.801 20.608 261.281 21.456C261.777 22.288 262.025 23.232 262.025 24.288C262.025 25.488 261.753 26.536 261.209 27.432C260.665 28.328 259.897 29.024 258.905 29.52C257.929 30 256.769 30.24 255.425 30.24Z" fill="#3A3A3A"/>
</svg>
