<svg width="57" height="57" viewBox="0 0 57 57" fill="none" xmlns="http://www.w3.org/2000/svg">
<path d="M56.5 28.5C56.5 43.964 43.964 56.5 28.5 56.5C13.036 56.5 0.5 43.964 0.5 28.5C0.5 13.036 13.036 0.5 28.5 0.5C43.964 0.5 56.5 13.036 56.5 28.5Z" stroke="#F0DDE3"/>
<path d="M38 22.375V33.625C38 34.2625 37.5125 34.75 36.875 34.75H35.75V24.5403L29 29.3875L22.25 24.5403V34.75H21.125C20.4867 34.75 20 34.2625 20 33.625V22.375C20 22.0562 20.1215 21.775 20.3232 21.574C20.525 21.37 20.807 21.25 21.125 21.25H21.5L29 26.6875L36.5 21.25H36.875C37.1938 21.25 37.475 21.3715 37.6768 21.574C37.8793 21.775 38 22.0562 38 22.375Z" fill="#F0DDE3"/>
</svg>
