<svg width="28" height="34" viewBox="0 0 28 34" fill="none" xmlns="http://www.w3.org/2000/svg">
<path d="M27 14C27 24.1111 14 32.7778 14 32.7778C14 32.7778 1 24.1111 1 14C1 10.5522 2.36964 7.24558 4.80761 4.80761C7.24558 2.36964 10.5522 1 14 1C17.4478 1 20.7544 2.36964 23.1924 4.80761C25.6304 7.24558 27 10.5522 27 14Z" stroke="#879C89" stroke-width="2" stroke-linecap="round" stroke-linejoin="round"/>
<path d="M13.9993 18.3332C16.3926 18.3332 18.3327 16.3931 18.3327 13.9998C18.3327 11.6066 16.3926 9.6665 13.9993 9.6665C11.6061 9.6665 9.66602 11.6066 9.66602 13.9998C9.66602 16.3931 11.6061 18.3332 13.9993 18.3332Z" stroke="#879C89" stroke-width="2" stroke-linecap="round" stroke-linejoin="round"/>
</svg>
