<svg width="81" height="29" viewBox="0 0 81 29" fill="none" xmlns="http://www.w3.org/2000/svg">
<path d="M74 6L80.5 9.5V22L68 23L74 19V6Z" fill="#F0DDE3"/>
<path d="M0.784 23L8.272 6.2H12.112L19.624 23H15.544L9.4 8.168H10.936L4.768 23H0.784ZM4.528 19.4L5.56 16.448H14.2L15.256 19.4H4.528ZM21.367 23V6.2H29.575C31.687 6.2 33.271 6.6 34.327 7.4C35.399 8.2 35.935 9.256 35.935 10.568C35.935 11.448 35.719 12.216 35.287 12.872C34.855 13.512 34.263 14.008 33.511 14.36C32.759 14.712 31.895 14.888 30.919 14.888L31.375 13.904C32.431 13.904 33.367 14.08 34.183 14.432C34.999 14.768 35.631 15.272 36.079 15.944C36.543 16.616 36.775 17.44 36.775 18.416C36.775 19.856 36.207 20.984 35.071 21.8C33.935 22.6 32.263 23 30.055 23H21.367ZM25.231 20.072H29.767C30.775 20.072 31.535 19.912 32.047 19.592C32.575 19.256 32.839 18.728 32.839 18.008C32.839 17.304 32.575 16.784 32.047 16.448C31.535 16.096 30.775 15.92 29.767 15.92H24.943V13.088H29.095C30.039 13.088 30.759 12.928 31.255 12.608C31.767 12.272 32.023 11.768 32.023 11.096C32.023 10.44 31.767 9.952 31.255 9.632C30.759 9.296 30.039 9.128 29.095 9.128H25.231V20.072ZM39.7186 23V6.2H47.3506C49.1746 6.2 50.7826 6.552 52.1746 7.256C53.5666 7.944 54.6546 8.912 55.4386 10.16C56.2226 11.408 56.6146 12.888 56.6146 14.6C56.6146 16.296 56.2226 17.776 55.4386 19.04C54.6546 20.288 53.5666 21.264 52.1746 21.968C50.7826 22.656 49.1746 23 47.3506 23H39.7186ZM43.6066 19.808H47.1586C48.2786 19.808 49.2466 19.6 50.0626 19.184C50.8946 18.752 51.5346 18.144 51.9826 17.36C52.4466 16.576 52.6786 15.656 52.6786 14.6C52.6786 13.528 52.4466 12.608 51.9826 11.84C51.5346 11.056 50.8946 10.456 50.0626 10.04C49.2466 9.608 48.2786 9.392 47.1586 9.392H43.6066V19.808ZM67.0107 23.288C64.6267 23.288 62.7627 22.624 61.4187 21.296C60.0747 19.968 59.4027 18.072 59.4027 15.608V6.2H63.2907V15.464C63.2907 17.064 63.6187 18.216 64.2747 18.92C64.9307 19.624 65.8507 19.976 67.0347 19.976C68.2187 19.976 69.1387 19.624 69.7947 18.92C70.4507 18.216 70.7787 17.064 70.7787 15.464V6.2H74.6187V15.608C74.6187 18.072 73.9467 19.968 72.6027 21.296C71.2587 22.624 69.3947 23.288 67.0107 23.288Z" fill="white"/>
</svg>
