<svg width="289" height="36" viewBox="0 0 289 36" fill="none" xmlns="http://www.w3.org/2000/svg">
<circle cx="5.5" cy="5.5" r="5.5" fill="#232323"/>
<path d="M14.312 13.176C14.536 13.176 14.768 13.24 15.008 13.368C15.264 13.48 15.456 13.632 15.584 13.824L21.416 22.8L20.216 22.752L26.192 13.824C26.496 13.392 26.888 13.176 27.368 13.176C27.752 13.176 28.096 13.312 28.4 13.584C28.704 13.856 28.856 14.208 28.856 14.64V28.536C28.856 28.952 28.72 29.304 28.448 29.592C28.176 29.864 27.816 30 27.368 30C26.92 30 26.552 29.864 26.264 29.592C25.992 29.304 25.856 28.952 25.856 28.536V17.232L26.792 17.448L21.896 24.912C21.752 25.088 21.568 25.24 21.344 25.368C21.136 25.496 20.92 25.552 20.696 25.536C20.488 25.552 20.272 25.496 20.048 25.368C19.84 25.24 19.664 25.088 19.52 24.912L14.936 17.664L15.56 16.392V28.536C15.56 28.952 15.432 29.304 15.176 29.592C14.92 29.864 14.584 30 14.168 30C13.768 30 13.44 29.864 13.184 29.592C12.928 29.304 12.8 28.952 12.8 28.536V14.64C12.8 14.24 12.944 13.896 13.232 13.608C13.536 13.32 13.896 13.176 14.312 13.176ZM38.1521 30C37.7041 30 37.3361 29.864 37.0481 29.592C36.7601 29.304 36.6161 28.952 36.6161 28.536V14.616H39.7361V28.536C39.7361 28.952 39.5841 29.304 39.2801 29.592C38.9921 29.864 38.6161 30 38.1521 30ZM32.8481 15.96C32.4321 15.96 32.0801 15.832 31.7921 15.576C31.5201 15.32 31.3841 14.984 31.3841 14.568C31.3841 14.152 31.5201 13.824 31.7921 13.584C32.0801 13.328 32.4321 13.2 32.8481 13.2H43.5041C43.9201 13.2 44.2641 13.328 44.5361 13.584C44.8241 13.84 44.9681 14.176 44.9681 14.592C44.9681 15.008 44.8241 15.344 44.5361 15.6C44.2641 15.84 43.9201 15.96 43.5041 15.96H32.8481ZM52.8875 30.24C51.7675 30.24 50.7595 30.104 49.8635 29.832C48.9675 29.544 48.1115 29.048 47.2955 28.344C47.0875 28.168 46.9275 27.968 46.8155 27.744C46.7035 27.52 46.6475 27.296 46.6475 27.072C46.6475 26.704 46.7755 26.384 47.0315 26.112C47.3035 25.824 47.6395 25.68 48.0395 25.68C48.3435 25.68 48.6155 25.776 48.8555 25.968C49.4635 26.464 50.0635 26.84 50.6555 27.096C51.2635 27.352 52.0075 27.48 52.8875 27.48C53.4795 27.48 54.0235 27.392 54.5195 27.216C55.0155 27.024 55.4155 26.776 55.7195 26.472C56.0235 26.152 56.1755 25.792 56.1755 25.392C56.1755 24.912 56.0315 24.504 55.7435 24.168C55.4555 23.832 55.0155 23.552 54.4235 23.328C53.8315 23.088 53.0795 22.904 52.1675 22.776C51.3035 22.648 50.5435 22.456 49.8875 22.2C49.2315 21.928 48.6795 21.592 48.2315 21.192C47.7995 20.776 47.4715 20.296 47.2475 19.752C47.0235 19.192 46.9115 18.568 46.9115 17.88C46.9115 16.84 47.1755 15.952 47.7035 15.216C48.2475 14.48 48.9755 13.92 49.8875 13.536C50.7995 13.152 51.8075 12.96 52.9115 12.96C53.9515 12.96 54.9115 13.12 55.7915 13.44C56.6875 13.744 57.4155 14.136 57.9755 14.616C58.4395 14.984 58.6715 15.408 58.6715 15.888C58.6715 16.24 58.5355 16.56 58.2635 16.848C57.9915 17.136 57.6715 17.28 57.3035 17.28C57.0635 17.28 56.8475 17.208 56.6555 17.064C56.3995 16.84 56.0555 16.632 55.6235 16.44C55.1915 16.232 54.7355 16.064 54.2555 15.936C53.7755 15.792 53.3275 15.72 52.9115 15.72C52.2235 15.72 51.6395 15.808 51.1595 15.984C50.6955 16.16 50.3435 16.4 50.1035 16.704C49.8635 17.008 49.7435 17.36 49.7435 17.76C49.7435 18.24 49.8795 18.64 50.1515 18.96C50.4395 19.264 50.8475 19.512 51.3755 19.704C51.9035 19.88 52.5355 20.04 53.2715 20.184C54.2315 20.36 55.0715 20.568 55.7915 20.808C56.5275 21.048 57.1355 21.36 57.6155 21.744C58.0955 22.112 58.4555 22.584 58.6955 23.16C58.9355 23.72 59.0555 24.408 59.0555 25.224C59.0555 26.264 58.7675 27.16 58.1915 27.912C57.6155 28.664 56.8555 29.24 55.9115 29.64C54.9835 30.04 53.9755 30.24 52.8875 30.24ZM72.4464 30.24C71.5344 30.24 70.6864 30.056 69.9024 29.688C69.1184 29.32 68.4784 28.792 67.9824 28.104C67.7904 27.816 67.6944 27.536 67.6944 27.264C67.6944 26.864 67.8464 26.528 68.1504 26.256C68.4704 25.984 68.7824 25.848 69.0864 25.848C69.3264 25.848 69.5584 25.92 69.7824 26.064C70.0224 26.208 70.2384 26.376 70.4304 26.568C70.7504 26.856 71.0624 27.064 71.3664 27.192C71.6864 27.304 72.0464 27.36 72.4464 27.36C72.9264 27.36 73.3744 27.24 73.7904 27C74.2064 26.76 74.5424 26.44 74.7984 26.04C75.0544 25.64 75.1824 25.208 75.1824 24.744V14.664C75.1824 14.248 75.3344 13.904 75.6384 13.632C75.9424 13.344 76.2944 13.2 76.6944 13.2C77.1424 13.2 77.5024 13.344 77.7744 13.632C78.0464 13.904 78.1824 14.248 78.1824 14.664V24.744C78.1824 25.72 77.9264 26.624 77.4144 27.456C76.9024 28.288 76.2144 28.96 75.3504 29.472C74.4864 29.984 73.5184 30.24 72.4464 30.24ZM92.0486 16.92C92.4646 16.92 92.8086 17.056 93.0806 17.328C93.3526 17.6 93.4886 17.952 93.4886 18.384V28.536C93.4886 28.952 93.3526 29.304 93.0806 29.592C92.8086 29.864 92.4646 30 92.0486 30C91.6326 30 91.2886 29.864 91.0166 29.592C90.7446 29.304 90.6086 28.952 90.6086 28.536V27.36L91.1366 27.576C91.1366 27.784 91.0246 28.04 90.8006 28.344C90.5766 28.632 90.2726 28.92 89.8886 29.208C89.5046 29.496 89.0486 29.744 88.5206 29.952C88.0086 30.144 87.4486 30.24 86.8406 30.24C85.7366 30.24 84.7366 29.96 83.8406 29.4C82.9446 28.824 82.2326 28.04 81.7046 27.048C81.1926 26.04 80.9366 24.888 80.9366 23.592C80.9366 22.28 81.1926 21.128 81.7046 20.136C82.2326 19.128 82.9366 18.344 83.8166 17.784C84.6966 17.208 85.6726 16.92 86.7446 16.92C87.4326 16.92 88.0646 17.024 88.6406 17.232C89.2166 17.44 89.7126 17.704 90.1286 18.024C90.5606 18.344 90.8886 18.672 91.1126 19.008C91.3526 19.328 91.4726 19.6 91.4726 19.824L90.6086 20.136V18.384C90.6086 17.968 90.7446 17.624 91.0166 17.352C91.2886 17.064 91.6326 16.92 92.0486 16.92ZM87.2006 27.6C87.9046 27.6 88.5206 27.424 89.0486 27.072C89.5766 26.72 89.9846 26.24 90.2726 25.632C90.5766 25.024 90.7286 24.344 90.7286 23.592C90.7286 22.824 90.5766 22.136 90.2726 21.528C89.9846 20.92 89.5766 20.44 89.0486 20.088C88.5206 19.736 87.9046 19.56 87.2006 19.56C86.5126 19.56 85.9046 19.736 85.3766 20.088C84.8486 20.44 84.4326 20.92 84.1286 21.528C83.8406 22.136 83.6966 22.824 83.6966 23.592C83.6966 24.344 83.8406 25.024 84.1286 25.632C84.4326 26.24 84.8486 26.72 85.3766 27.072C85.9046 27.424 86.5126 27.6 87.2006 27.6ZM98.2869 30C97.8709 30 97.5269 29.864 97.2549 29.592C96.9829 29.304 96.8469 28.952 96.8469 28.536V13.704C96.8469 13.288 96.9829 12.944 97.2549 12.672C97.5269 12.384 97.8709 12.24 98.2869 12.24C98.7029 12.24 99.0469 12.384 99.3189 12.672C99.5909 12.944 99.7269 13.288 99.7269 13.704V28.536C99.7269 28.952 99.5909 29.304 99.3189 29.592C99.0469 29.864 98.7029 30 98.2869 30ZM105.919 17.16C106.287 17.16 106.607 17.312 106.879 17.616C107.151 17.92 107.287 18.216 107.287 18.504C107.287 18.888 107.095 19.248 106.711 19.584L99.4869 26.232L99.3669 22.92L104.863 17.616C105.167 17.312 105.519 17.16 105.919 17.16ZM106.279 29.976C105.863 29.976 105.511 29.816 105.223 29.496L100.783 24.792L102.967 22.776L107.287 27.48C107.591 27.8 107.743 28.16 107.743 28.56C107.743 28.976 107.575 29.32 107.239 29.592C106.919 29.848 106.599 29.976 106.279 29.976ZM120.689 16.92C121.105 16.92 121.449 17.056 121.721 17.328C121.993 17.6 122.129 17.952 122.129 18.384V28.536C122.129 28.952 121.993 29.304 121.721 29.592C121.449 29.864 121.105 30 120.689 30C120.273 30 119.929 29.864 119.657 29.592C119.385 29.304 119.249 28.952 119.249 28.536V27.36L119.777 27.576C119.777 27.784 119.665 28.04 119.441 28.344C119.217 28.632 118.913 28.92 118.529 29.208C118.145 29.496 117.689 29.744 117.161 29.952C116.649 30.144 116.089 30.24 115.481 30.24C114.377 30.24 113.377 29.96 112.481 29.4C111.585 28.824 110.873 28.04 110.345 27.048C109.833 26.04 109.577 24.888 109.577 23.592C109.577 22.28 109.833 21.128 110.345 20.136C110.873 19.128 111.577 18.344 112.457 17.784C113.337 17.208 114.313 16.92 115.385 16.92C116.073 16.92 116.705 17.024 117.281 17.232C117.857 17.44 118.353 17.704 118.769 18.024C119.201 18.344 119.529 18.672 119.753 19.008C119.993 19.328 120.113 19.6 120.113 19.824L119.249 20.136V18.384C119.249 17.968 119.385 17.624 119.657 17.352C119.929 17.064 120.273 16.92 120.689 16.92ZM115.841 27.6C116.545 27.6 117.161 27.424 117.689 27.072C118.217 26.72 118.625 26.24 118.913 25.632C119.217 25.024 119.369 24.344 119.369 23.592C119.369 22.824 119.217 22.136 118.913 21.528C118.625 20.92 118.217 20.44 117.689 20.088C117.161 19.736 116.545 19.56 115.841 19.56C115.153 19.56 114.545 19.736 114.017 20.088C113.489 20.44 113.073 20.92 112.769 21.528C112.481 22.136 112.337 22.824 112.337 23.592C112.337 24.344 112.481 25.024 112.769 25.632C113.073 26.24 113.489 26.72 114.017 27.072C114.545 27.424 115.153 27.6 115.841 27.6ZM126.688 30C126.272 30 125.928 29.864 125.656 29.592C125.384 29.304 125.248 28.952 125.248 28.536V18.624C125.248 18.208 125.384 17.864 125.656 17.592C125.928 17.304 126.272 17.16 126.688 17.16C127.104 17.16 127.448 17.304 127.72 17.592C127.992 17.864 128.128 18.208 128.128 18.624V20.88L127.96 19.272C128.136 18.888 128.36 18.552 128.632 18.264C128.92 17.96 129.24 17.712 129.592 17.52C129.944 17.312 130.32 17.16 130.72 17.064C131.12 16.968 131.52 16.92 131.92 16.92C132.4 16.92 132.8 17.056 133.12 17.328C133.456 17.6 133.624 17.92 133.624 18.288C133.624 18.816 133.488 19.2 133.216 19.44C132.944 19.664 132.648 19.776 132.328 19.776C132.024 19.776 131.744 19.72 131.488 19.608C131.248 19.496 130.968 19.44 130.648 19.44C130.36 19.44 130.064 19.512 129.76 19.656C129.472 19.784 129.2 19.992 128.944 20.28C128.704 20.568 128.504 20.928 128.344 21.36C128.2 21.776 128.128 22.272 128.128 22.848V28.536C128.128 28.952 127.992 29.304 127.72 29.592C127.448 29.864 127.104 30 126.688 30ZM135.798 17.4H141.486C141.87 17.4 142.19 17.528 142.446 17.784C142.702 18.04 142.83 18.36 142.83 18.744C142.83 19.112 142.702 19.424 142.446 19.68C142.19 19.92 141.87 20.04 141.486 20.04H135.798C135.414 20.04 135.094 19.912 134.838 19.656C134.582 19.4 134.454 19.08 134.454 18.696C134.454 18.328 134.582 18.024 134.838 17.784C135.094 17.528 135.414 17.4 135.798 17.4ZM138.366 14.4C138.782 14.4 139.118 14.544 139.374 14.832C139.646 15.104 139.782 15.448 139.782 15.864V26.544C139.782 26.768 139.822 26.952 139.902 27.096C139.998 27.24 140.118 27.344 140.262 27.408C140.422 27.472 140.59 27.504 140.766 27.504C140.958 27.504 141.134 27.472 141.294 27.408C141.454 27.328 141.638 27.288 141.846 27.288C142.07 27.288 142.27 27.392 142.446 27.6C142.638 27.808 142.734 28.096 142.734 28.464C142.734 28.912 142.486 29.28 141.99 29.568C141.51 29.856 140.99 30 140.43 30C140.094 30 139.718 29.976 139.302 29.928C138.902 29.864 138.518 29.728 138.15 29.52C137.798 29.296 137.502 28.96 137.262 28.512C137.022 28.064 136.902 27.448 136.902 26.664V15.864C136.902 15.448 137.038 15.104 137.31 14.832C137.598 14.544 137.95 14.4 138.366 14.4ZM155.986 16.92C156.402 16.92 156.746 17.056 157.018 17.328C157.29 17.6 157.426 17.952 157.426 18.384V28.536C157.426 28.952 157.29 29.304 157.018 29.592C156.746 29.864 156.402 30 155.986 30C155.57 30 155.226 29.864 154.954 29.592C154.682 29.304 154.546 28.952 154.546 28.536V27.36L155.074 27.576C155.074 27.784 154.962 28.04 154.738 28.344C154.514 28.632 154.21 28.92 153.826 29.208C153.442 29.496 152.986 29.744 152.458 29.952C151.946 30.144 151.386 30.24 150.778 30.24C149.674 30.24 148.674 29.96 147.778 29.4C146.882 28.824 146.17 28.04 145.642 27.048C145.13 26.04 144.874 24.888 144.874 23.592C144.874 22.28 145.13 21.128 145.642 20.136C146.17 19.128 146.874 18.344 147.754 17.784C148.634 17.208 149.61 16.92 150.682 16.92C151.37 16.92 152.002 17.024 152.578 17.232C153.154 17.44 153.65 17.704 154.066 18.024C154.498 18.344 154.826 18.672 155.05 19.008C155.29 19.328 155.41 19.6 155.41 19.824L154.546 20.136V18.384C154.546 17.968 154.682 17.624 154.954 17.352C155.226 17.064 155.57 16.92 155.986 16.92ZM151.138 27.6C151.842 27.6 152.458 27.424 152.986 27.072C153.514 26.72 153.922 26.24 154.21 25.632C154.514 25.024 154.666 24.344 154.666 23.592C154.666 22.824 154.514 22.136 154.21 21.528C153.922 20.92 153.514 20.44 152.986 20.088C152.458 19.736 151.842 19.56 151.138 19.56C150.45 19.56 149.842 19.736 149.314 20.088C148.786 20.44 148.37 20.92 148.066 21.528C147.778 22.136 147.634 22.824 147.634 23.592C147.634 24.344 147.778 25.024 148.066 25.632C148.37 26.24 148.786 26.72 149.314 27.072C149.842 27.424 150.45 27.6 151.138 27.6ZM174.447 13.2C175.279 13.2 176.055 13.44 176.775 13.92C177.511 14.4 178.103 15.048 178.551 15.864C178.999 16.68 179.223 17.592 179.223 18.6C179.223 19.592 178.999 20.496 178.551 21.312C178.103 22.128 177.511 22.784 176.775 23.28C176.055 23.76 175.279 24 174.447 24H170.031L170.271 23.568V28.536C170.271 28.952 170.143 29.304 169.887 29.592C169.631 29.864 169.295 30 168.879 30C168.479 30 168.151 29.864 167.895 29.592C167.639 29.304 167.511 28.952 167.511 28.536V14.664C167.511 14.248 167.647 13.904 167.919 13.632C168.207 13.344 168.559 13.2 168.975 13.2H174.447ZM174.447 21.264C174.751 21.264 175.047 21.136 175.335 20.88C175.623 20.624 175.863 20.296 176.055 19.896C176.247 19.48 176.343 19.048 176.343 18.6C176.343 18.136 176.247 17.704 176.055 17.304C175.863 16.904 175.623 16.584 175.335 16.344C175.047 16.088 174.751 15.96 174.447 15.96H169.983L170.271 15.528V21.648L170.007 21.264H174.447ZM191.143 17.16C191.559 17.16 191.903 17.304 192.175 17.592C192.447 17.864 192.583 18.208 192.583 18.624V24.72C192.583 26.416 192.111 27.76 191.167 28.752C190.223 29.744 188.863 30.24 187.087 30.24C185.311 30.24 183.951 29.744 183.007 28.752C182.079 27.76 181.615 26.416 181.615 24.72V18.624C181.615 18.208 181.751 17.864 182.023 17.592C182.295 17.304 182.639 17.16 183.055 17.16C183.471 17.16 183.815 17.304 184.087 17.592C184.359 17.864 184.495 18.208 184.495 18.624V24.72C184.495 25.696 184.711 26.424 185.143 26.904C185.575 27.368 186.223 27.6 187.087 27.6C187.967 27.6 188.623 27.368 189.055 26.904C189.487 26.424 189.703 25.696 189.703 24.72V18.624C189.703 18.208 189.839 17.864 190.111 17.592C190.383 17.304 190.727 17.16 191.143 17.16ZM194.957 28.008C194.797 27.784 194.725 27.496 194.741 27.144C194.757 26.792 194.965 26.488 195.365 26.232C195.621 26.072 195.893 26.008 196.181 26.04C196.469 26.056 196.749 26.2 197.021 26.472C197.485 26.936 197.973 27.296 198.485 27.552C198.997 27.808 199.637 27.936 200.405 27.936C200.645 27.92 200.909 27.888 201.197 27.84C201.485 27.776 201.733 27.648 201.941 27.456C202.165 27.248 202.277 26.936 202.277 26.52C202.277 26.168 202.157 25.888 201.917 25.68C201.677 25.472 201.357 25.296 200.957 25.152C200.573 25.008 200.141 24.872 199.661 24.744C199.165 24.6 198.653 24.44 198.125 24.264C197.613 24.088 197.141 23.864 196.709 23.592C196.277 23.304 195.925 22.928 195.653 22.464C195.381 22 195.245 21.416 195.245 20.712C195.245 19.912 195.469 19.232 195.917 18.672C196.365 18.112 196.941 17.68 197.645 17.376C198.365 17.072 199.117 16.92 199.901 16.92C200.397 16.92 200.917 16.984 201.461 17.112C202.005 17.224 202.525 17.416 203.021 17.688C203.517 17.944 203.933 18.288 204.269 18.72C204.445 18.96 204.549 19.248 204.581 19.584C204.613 19.92 204.461 20.224 204.125 20.496C203.885 20.688 203.605 20.776 203.285 20.76C202.965 20.728 202.701 20.616 202.493 20.424C202.221 20.072 201.853 19.792 201.389 19.584C200.941 19.376 200.421 19.272 199.829 19.272C199.589 19.272 199.325 19.304 199.037 19.368C198.765 19.416 198.525 19.536 198.317 19.728C198.109 19.904 198.005 20.192 198.005 20.592C198.005 20.96 198.125 21.256 198.365 21.48C198.605 21.688 198.925 21.864 199.325 22.008C199.741 22.136 200.181 22.264 200.645 22.392C201.125 22.52 201.613 22.672 202.109 22.848C202.605 23.024 203.061 23.256 203.477 23.544C203.893 23.832 204.229 24.208 204.485 24.672C204.741 25.12 204.869 25.696 204.869 26.4C204.869 27.216 204.629 27.912 204.149 28.488C203.669 29.064 203.069 29.504 202.349 29.808C201.629 30.096 200.893 30.24 200.141 30.24C199.197 30.24 198.253 30.08 197.309 29.76C196.365 29.424 195.581 28.84 194.957 28.008ZM217.978 16.92C218.394 16.92 218.738 17.056 219.01 17.328C219.282 17.6 219.418 17.952 219.418 18.384V28.536C219.418 28.952 219.282 29.304 219.01 29.592C218.738 29.864 218.394 30 217.978 30C217.562 30 217.218 29.864 216.946 29.592C216.674 29.304 216.538 28.952 216.538 28.536V27.36L217.066 27.576C217.066 27.784 216.954 28.04 216.73 28.344C216.506 28.632 216.202 28.92 215.818 29.208C215.434 29.496 214.978 29.744 214.45 29.952C213.938 30.144 213.378 30.24 212.77 30.24C211.666 30.24 210.666 29.96 209.77 29.4C208.874 28.824 208.162 28.04 207.634 27.048C207.122 26.04 206.866 24.888 206.866 23.592C206.866 22.28 207.122 21.128 207.634 20.136C208.162 19.128 208.866 18.344 209.746 17.784C210.626 17.208 211.602 16.92 212.674 16.92C213.362 16.92 213.994 17.024 214.57 17.232C215.146 17.44 215.642 17.704 216.058 18.024C216.49 18.344 216.818 18.672 217.042 19.008C217.282 19.328 217.402 19.6 217.402 19.824L216.538 20.136V18.384C216.538 17.968 216.674 17.624 216.946 17.352C217.218 17.064 217.562 16.92 217.978 16.92ZM213.13 27.6C213.834 27.6 214.45 27.424 214.978 27.072C215.506 26.72 215.914 26.24 216.202 25.632C216.506 25.024 216.658 24.344 216.658 23.592C216.658 22.824 216.506 22.136 216.202 21.528C215.914 20.92 215.506 20.44 214.978 20.088C214.45 19.736 213.834 19.56 213.13 19.56C212.442 19.56 211.834 19.736 211.306 20.088C210.778 20.44 210.362 20.92 210.058 21.528C209.77 22.136 209.626 22.824 209.626 23.592C209.626 24.344 209.77 25.024 210.058 25.632C210.362 26.24 210.778 26.72 211.306 27.072C211.834 27.424 212.442 27.6 213.13 27.6ZM222.681 17.4H228.369C228.753 17.4 229.073 17.528 229.329 17.784C229.585 18.04 229.713 18.36 229.713 18.744C229.713 19.112 229.585 19.424 229.329 19.68C229.073 19.92 228.753 20.04 228.369 20.04H222.681C222.297 20.04 221.977 19.912 221.721 19.656C221.465 19.4 221.337 19.08 221.337 18.696C221.337 18.328 221.465 18.024 221.721 17.784C221.977 17.528 222.297 17.4 222.681 17.4ZM225.249 14.4C225.665 14.4 226.001 14.544 226.257 14.832C226.529 15.104 226.665 15.448 226.665 15.864V26.544C226.665 26.768 226.705 26.952 226.785 27.096C226.881 27.24 227.001 27.344 227.145 27.408C227.305 27.472 227.473 27.504 227.649 27.504C227.841 27.504 228.017 27.472 228.177 27.408C228.337 27.328 228.521 27.288 228.729 27.288C228.953 27.288 229.153 27.392 229.329 27.6C229.521 27.808 229.617 28.096 229.617 28.464C229.617 28.912 229.369 29.28 228.873 29.568C228.393 29.856 227.873 30 227.313 30C226.977 30 226.601 29.976 226.185 29.928C225.785 29.864 225.401 29.728 225.033 29.52C224.681 29.296 224.385 28.96 224.145 28.512C223.905 28.064 223.785 27.448 223.785 26.664V15.864C223.785 15.448 223.921 15.104 224.193 14.832C224.481 14.544 224.833 14.4 225.249 14.4ZM248.515 27.36C248.899 27.36 249.219 27.488 249.475 27.744C249.731 28 249.859 28.32 249.859 28.704C249.859 29.072 249.731 29.384 249.475 29.64C249.219 29.88 248.899 30 248.515 30H240.355C239.939 30 239.611 29.872 239.371 29.616C239.131 29.36 239.011 29.032 239.011 28.632C239.011 28.232 239.155 27.88 239.443 27.576L244.675 21.984C245.267 21.344 245.731 20.688 246.067 20.016C246.419 19.344 246.595 18.76 246.595 18.264C246.595 17.464 246.363 16.824 245.899 16.344C245.435 15.848 244.819 15.6 244.051 15.6C243.747 15.6 243.435 15.672 243.115 15.816C242.795 15.96 242.483 16.16 242.179 16.416C241.891 16.672 241.619 16.968 241.363 17.304C241.171 17.56 240.979 17.72 240.787 17.784C240.595 17.848 240.419 17.88 240.259 17.88C239.907 17.88 239.579 17.752 239.275 17.496C238.987 17.224 238.843 16.912 238.843 16.56C238.843 16.288 238.931 16.024 239.107 15.768C239.299 15.512 239.531 15.248 239.803 14.976C240.203 14.576 240.651 14.224 241.147 13.92C241.643 13.616 242.155 13.384 242.683 13.224C243.211 13.048 243.723 12.96 244.219 12.96C245.291 12.96 246.219 13.176 247.003 13.608C247.803 14.024 248.419 14.624 248.851 15.408C249.283 16.176 249.499 17.088 249.499 18.144C249.499 19.024 249.235 20.008 248.707 21.096C248.195 22.168 247.499 23.176 246.619 24.12L243.379 27.576L243.115 27.36H248.515ZM258.556 30.24C257.18 30.24 256.012 29.88 255.052 29.16C254.108 28.424 253.388 27.408 252.892 26.112C252.396 24.8 252.148 23.296 252.148 21.6C252.148 19.888 252.396 18.384 252.892 17.088C253.388 15.792 254.108 14.784 255.052 14.064C256.012 13.328 257.18 12.96 258.556 12.96C259.932 12.96 261.092 13.328 262.036 14.064C262.996 14.784 263.724 15.792 264.22 17.088C264.716 18.384 264.964 19.888 264.964 21.6C264.964 23.296 264.716 24.8 264.22 26.112C263.724 27.408 262.996 28.424 262.036 29.16C261.092 29.88 259.932 30.24 258.556 30.24ZM258.556 27.36C259.228 27.36 259.804 27.152 260.284 26.736C260.78 26.304 261.164 25.664 261.436 24.816C261.708 23.952 261.844 22.88 261.844 21.6C261.844 20.304 261.708 19.232 261.436 18.384C261.164 17.536 260.78 16.904 260.284 16.488C259.804 16.056 259.228 15.84 258.556 15.84C257.9 15.84 257.324 16.056 256.828 16.488C256.332 16.904 255.948 17.536 255.676 18.384C255.404 19.232 255.268 20.304 255.268 21.6C255.268 22.88 255.404 23.952 255.676 24.816C255.948 25.664 256.332 26.304 256.828 26.736C257.324 27.152 257.9 27.36 258.556 27.36ZM271.642 30C271.194 30 270.826 29.864 270.538 29.592C270.25 29.304 270.106 28.952 270.106 28.536V16.44L270.442 16.968L268.69 18.264C268.466 18.44 268.186 18.528 267.85 18.528C267.466 18.528 267.13 18.384 266.842 18.096C266.554 17.808 266.41 17.464 266.41 17.064C266.41 16.552 266.658 16.136 267.154 15.816L270.61 13.512C270.77 13.4 270.946 13.32 271.138 13.272C271.346 13.224 271.538 13.2 271.714 13.2C272.178 13.2 272.546 13.344 272.818 13.632C273.09 13.904 273.226 14.248 273.226 14.664V28.536C273.226 28.952 273.074 29.304 272.77 29.592C272.482 29.864 272.106 30 271.642 30ZM284.522 21.48L284.474 20.928C285.082 21.2 285.61 21.552 286.058 21.984C286.506 22.416 286.85 22.888 287.09 23.4C287.33 23.912 287.45 24.44 287.45 24.984C287.45 25.896 287.194 26.736 286.682 27.504C286.186 28.256 285.514 28.864 284.666 29.328C283.818 29.776 282.874 30 281.834 30C280.794 30 279.85 29.776 279.002 29.328C278.154 28.864 277.474 28.256 276.962 27.504C276.466 26.736 276.218 25.896 276.218 24.984C276.218 24.248 276.37 23.616 276.674 23.088C276.994 22.544 277.386 22.088 277.85 21.72C278.33 21.352 278.802 21.048 279.266 20.808L279.074 21.48C278.674 21.32 278.282 21.096 277.898 20.808C277.53 20.504 277.226 20.12 276.986 19.656C276.746 19.192 276.626 18.648 276.626 18.024C276.626 17.128 276.858 16.32 277.322 15.6C277.786 14.864 278.41 14.28 279.194 13.848C279.994 13.416 280.874 13.2 281.834 13.2C282.81 13.2 283.682 13.416 284.45 13.848C285.234 14.28 285.858 14.864 286.322 15.6C286.786 16.32 287.018 17.128 287.018 18.024C287.018 18.712 286.882 19.288 286.61 19.752C286.338 20.216 286.01 20.584 285.626 20.856C285.242 21.128 284.874 21.336 284.522 21.48ZM279.506 18.072C279.506 18.504 279.602 18.888 279.794 19.224C280.002 19.56 280.282 19.832 280.634 20.04C280.986 20.232 281.386 20.328 281.834 20.328C282.282 20.328 282.674 20.232 283.01 20.04C283.362 19.832 283.634 19.56 283.826 19.224C284.034 18.888 284.138 18.504 284.138 18.072C284.138 17.432 283.914 16.904 283.466 16.488C283.034 16.056 282.49 15.84 281.834 15.84C281.162 15.84 280.602 16.056 280.154 16.488C279.722 16.904 279.506 17.432 279.506 18.072ZM281.834 27.36C282.602 27.36 283.25 27.128 283.778 26.664C284.306 26.184 284.57 25.608 284.57 24.936C284.57 24.472 284.45 24.056 284.21 23.688C283.97 23.32 283.642 23.032 283.226 22.824C282.81 22.6 282.346 22.488 281.834 22.488C281.322 22.488 280.858 22.6 280.442 22.824C280.026 23.032 279.698 23.32 279.458 23.688C279.218 24.056 279.098 24.472 279.098 24.936C279.098 25.608 279.362 26.184 279.89 26.664C280.418 27.128 281.066 27.36 281.834 27.36Z" fill="#3A3A3A"/>
</svg>
