<svg width="57" height="57" viewBox="0 0 57 57" fill="none" xmlns="http://www.w3.org/2000/svg">
<path d="M28.5132 17.25C22.3189 17.25 17.2764 22.2882 17.2742 28.4824C17.273 30.4624 17.7917 32.3954 18.7749 34.0986L17.25 39.75L23.1365 38.3591C24.7779 39.2546 26.6256 39.7247 28.5066 39.7258H28.511C34.7041 39.7258 39.7444 34.6865 39.7478 28.4934C39.7501 25.4908 38.5824 22.6677 36.4607 20.5437C34.3389 18.4208 31.5192 17.2511 28.5132 17.25ZM28.511 19.5C30.914 19.5011 33.1722 20.438 34.8699 22.1345C36.5675 23.8333 37.5001 26.0905 37.4978 28.4912C37.4956 33.4457 33.4655 37.4758 28.5088 37.4758C27.0092 37.4747 25.5237 37.0982 24.2153 36.3838L23.4573 35.9707L22.6201 36.1685L20.4053 36.6914L20.9458 34.6831L21.1897 33.7822L20.7239 32.9736C19.9386 31.6146 19.523 30.0608 19.5242 28.4824C19.5264 23.5302 23.5576 19.5 28.511 19.5ZM24.5361 23.2969C24.3483 23.2969 24.0445 23.3672 23.7869 23.6484C23.5292 23.9286 22.8025 24.607 22.8025 25.9885C22.8025 27.37 23.8088 28.7054 23.9495 28.8933C24.089 29.0801 25.892 32.0046 28.7461 33.1296C31.1176 34.0645 31.5993 33.88 32.1145 33.8328C32.6298 33.7866 33.7767 33.1549 34.0107 32.499C34.2447 31.8431 34.2453 31.279 34.1755 31.1631C34.1058 31.0461 33.9185 30.9763 33.6372 30.8357C33.3571 30.6951 31.9766 30.0172 31.719 29.9238C31.4614 29.8305 31.2729 29.7832 31.0862 30.0645C30.8994 30.3457 30.3627 30.9763 30.1985 31.1631C30.0342 31.351 29.8711 31.3762 29.5898 31.2356C29.3086 31.0938 28.4043 30.7966 27.3311 29.8403C26.4963 29.0967 25.933 28.1792 25.7688 27.8979C25.6057 27.6178 25.7534 27.464 25.894 27.3245C26.02 27.1985 26.1731 26.9965 26.3137 26.8323C26.4532 26.668 26.5016 26.551 26.595 26.3643C26.6883 26.1775 26.6406 26.0127 26.5708 25.8721C26.5011 25.7314 25.9548 24.3448 25.7051 23.7891C25.4947 23.3222 25.2725 23.3113 25.0723 23.3035C24.9091 23.2967 24.7229 23.2969 24.5361 23.2969Z" fill="#F0DDE3"/>
<path d="M56.5 28.5C56.5 43.964 43.964 56.5 28.5 56.5C13.036 56.5 0.5 43.964 0.5 28.5C0.5 13.036 13.036 0.5 28.5 0.5C43.964 0.5 56.5 13.036 56.5 28.5Z" stroke="#F0DDE3"/>
</svg>
